<svg width="16" height="16" viewBox="0 0 16 16" fill="none" xmlns="http://www.w3.org/2000/svg">
<path d="M12.6667 2H3.33333C2.71449 2 2.121 2.25286 1.68342 2.70294C1.24583 3.15303 1 3.76348 1 4.4L1 11.6C1 12.2365 1.24583 12.847 1.68342 13.2971C2.121 13.7471 2.71449 14 3.33333 14H12.6667C13.2855 14 13.879 13.7471 14.3166 13.2971C14.7542 12.847 15 12.2365 15 11.6V4.4C15 3.76348 14.7542 3.15303 14.3166 2.70294C13.879 2.25286 13.2855 2 12.6667 2ZM13.8333 11.6C13.8333 11.9183 13.7104 12.2235 13.4916 12.4485C13.2728 12.6736 12.9761 12.8 12.6667 12.8H3.33333C3.02391 12.8 2.72717 12.6736 2.50838 12.4485C2.28958 12.2235 2.16667 11.9183 2.16667 11.6V4.4C2.16667 4.08174 2.28958 3.77652 2.50838 3.55147C2.72717 3.32643 3.02391 3.2 3.33333 3.2H12.6667C12.9761 3.2 13.2728 3.32643 13.4916 3.55147C13.7104 3.77652 13.8333 4.08174 13.8333 4.4V11.6Z" fill="#D6AB3D"/>
<path d="M12.8247 5.18375C12.7697 5.12919 12.7032 5.08493 12.6291 5.05351C12.555 5.02209 12.4748 5.00412 12.393 5.00063C12.3112 4.99714 12.2294 5.00819 12.1524 5.03316C12.0753 5.05813 12.0045 5.09652 11.9439 5.14615L8.84153 7.68825C8.61137 7.87698 8.31129 7.98158 8 7.98158C7.68871 7.98158 7.38863 7.87698 7.15847 7.68825L4.05605 5.14615C3.93371 5.04596 3.77218 4.99364 3.607 5.00069C3.44182 5.00774 3.28652 5.07359 3.17525 5.18375C3.06399 5.29391 3.00588 5.43936 3.01372 5.5881C3.0176 5.66174 3.03755 5.73398 3.07243 5.80069C3.10731 5.86739 3.15644 5.92726 3.21702 5.97686L5.68362 7.99752L3.21764 10.0126C3.15436 10.0614 3.10259 10.1212 3.06542 10.1884C3.02824 10.2556 3.00641 10.3288 3.00121 10.4037C2.99601 10.4786 3.00756 10.5537 3.03515 10.6245C3.06275 10.6954 3.10584 10.7605 3.16188 10.816C3.21792 10.8716 3.28577 10.9165 3.36141 10.948C3.43705 10.9796 3.51895 10.9971 3.60226 10.9997C3.68557 11.0022 3.76861 10.9897 3.84644 10.9628C3.92428 10.936 3.99534 10.8953 4.05543 10.8433L6.63797 8.73282C7.04126 8.97509 7.5152 9.10438 8 9.10438C8.4848 9.10438 8.95874 8.97509 9.36202 8.73282L11.9446 10.8433C12.0047 10.8953 12.0757 10.936 12.1536 10.9628C12.2314 10.9897 12.3144 11.0022 12.3977 10.9997C12.481 10.9971 12.5629 10.9796 12.6386 10.948C12.7142 10.9165 12.7821 10.8716 12.8381 10.816C12.8942 10.7605 12.9372 10.6954 12.9648 10.6245C12.9924 10.5537 13.004 10.4786 12.9988 10.4037C12.9936 10.3288 12.9718 10.2556 12.9346 10.1884C12.8974 10.1212 12.8456 10.0614 12.7824 10.0126L10.317 7.99696L12.783 5.9763C12.9052 5.87615 12.9782 5.73642 12.986 5.58781C12.9939 5.4392 12.9359 5.29387 12.8247 5.18375Z" fill="#D6AB3D"/>
</svg>
