<svg width="48" height="49" viewBox="0 0 48 49" fill="none" xmlns="http://www.w3.org/2000/svg">
<g clip-path="url(#clip0_105_166)">
<path d="M24 0C10.8 0 0 11.025 0 24.5C0 37.975 10.8 49 24 49C37.2 49 48 37.975 48 24.5C48 11.025 37.2 0 24 0ZM24 8.16667C28.4 8.16667 32 12.6583 32 18.375C32 24.0917 28.4 28.5833 24 28.5833C19.6 28.5833 16 24.0917 16 18.375C16 12.6583 19.6 8.16667 24 8.16667ZM37.2 39.8125C33.8 42.875 29 44.9167 24 44.9167C19 44.9167 14.2 42.875 10.8 39.8125C10 38.9958 9.8 37.7708 10.6 36.9542C12.8 34.3 15.8 32.4625 19 31.4417C20.6 32.2583 22.2 32.6667 24 32.6667C25.8 32.6667 27.4 32.2583 29 31.4417C32.4 32.4625 35.2 34.3 37.4 36.9542C38.2 37.7708 38.2 38.9958 37.2 39.8125Z" fill="black"/>
</g>
<defs>
<clipPath id="clip0_105_166">
<rect width="48" height="49" fill="white"/>
</clipPath>
</defs>
</svg>
