<svg width="46" height="47" viewBox="0 0 46 47" fill="none" xmlns="http://www.w3.org/2000/svg">
<g clip-path="url(#clip0_105_176)">
<path d="M23 0L28.3154 3.14687H34.4752L37.5551 8.62852L42.9201 11.7754V18.0691L46 23.5L42.9201 28.9309V35.2246L37.5551 38.3715L34.4752 43.8532H28.3154L23 47L17.6847 43.8532H11.5248L8.44493 38.3715L3.07992 35.2246V28.9309L0 23.5L3.07992 18.0691V11.7754L8.44493 8.62852L11.5248 3.14687H17.6847L23 0Z" fill="black"/>
<path d="M23.0003 40.7063C13.7109 40.7063 6.16016 32.9913 6.16016 23.5C6.16016 14.0086 13.7109 6.2937 23.0003 6.2937C32.2898 6.2937 39.8405 14.0086 39.8405 23.5C39.8405 32.9913 32.2898 40.7063 23.0003 40.7063ZM23.0003 7.76562C14.5057 7.76562 7.60076 14.8207 7.60076 23.5C7.60076 32.1792 14.5057 39.2343 23.0003 39.2343C31.4949 39.2343 38.3999 32.1792 38.3999 23.5C38.3999 14.8207 31.4949 7.76562 23.0003 7.76562Z" fill="white"/>
<path d="M21.1619 29.8952L13.8595 23.9568C13.2634 23.4492 13.1641 22.5864 13.6608 21.9773C14.1576 21.3682 15.0021 21.2667 15.5982 21.7743L21.8574 26.9006L30.203 17.3585C30.6997 16.8002 31.5939 16.7494 32.1403 17.257C32.6868 17.7645 32.7364 18.6782 32.2397 19.2365L23.0496 29.743C22.5529 30.3013 21.7084 30.352 21.1619 29.8952Z" fill="white"/>
</g>
<defs>
<clipPath id="clip0_105_176">
<rect width="46" height="47" fill="white"/>
</clipPath>
</defs>
</svg>
