<svg width="48" height="48" viewBox="0 0 48 48" fill="none" xmlns="http://www.w3.org/2000/svg">
<path d="M24 48C10.7438 48 0 37.2562 0 24C0 10.7438 10.7438 0 24 0C37.2562 0 48 10.7438 48 24C48 37.2562 37.2562 48 24 48ZM21.75 24C21.75 24.75 22.125 25.4531 22.7531 25.7906L31.7531 31.7906C32.7844 32.5594 34.1813 32.2781 34.7906 31.2469C35.5594 30.2156 35.2781 28.8188 34.2469 28.125L26.25 22.8V11.25C26.25 10.0031 25.2469 9 23.9156 9C22.7531 9 21.6656 10.0031 21.6656 11.25L21.75 24Z" fill="black"/>
</svg>
