<svg width="22" height="22" viewBox="0 0 22 22" fill="none" xmlns="http://www.w3.org/2000/svg">
<path d="M10.75 0.906253C9.05411 0.905307 7.38676 1.34276 5.90978 2.17618C4.43279 3.00959 3.19632 4.21065 2.32036 5.6628C1.4444 7.11495 0.958696 8.76888 0.91038 10.4641C0.862065 12.1593 1.25278 13.8382 2.04461 15.3379L0.90625 19.8906L4.5857 18.419C5.81216 19.4059 7.25743 20.0843 8.80027 20.3973C10.3431 20.7102 11.9385 20.6486 13.4526 20.2175C14.9666 19.7864 16.3553 18.9985 17.5019 17.9199C18.6485 16.8412 19.5197 15.5033 20.0424 14.0183C20.5651 12.5334 20.724 10.9447 20.5058 9.38568C20.2877 7.82663 19.6987 6.34264 18.7885 5.05823C17.8782 3.77382 16.6732 2.72645 15.2745 2.00401C13.8758 1.28156 12.3242 0.905118 10.75 0.906253Z" stroke="white" stroke-width="1.5" stroke-linejoin="round"/>
<path d="M11.7792 12.7034L12.7734 11.7092C13.0375 11.4464 13.395 11.2989 13.7676 11.2989C14.1402 11.2989 14.4977 11.4464 14.7618 11.7092L15.756 12.7034C16.0188 12.9675 16.1663 13.325 16.1663 13.6976C16.1663 14.0702 16.0188 14.4277 15.756 14.6918L14.7618 15.6867C14.7618 15.6867 12.2763 18.1723 7.80088 13.6976C3.32549 9.22291 5.81174 6.73666 5.81174 6.73666L6.80666 5.74174C7.07101 5.4793 7.42839 5.33203 7.80088 5.33203C8.17337 5.33203 8.53075 5.4793 8.7951 5.74174L9.78932 6.73666C10.0521 7.00082 10.1996 7.35827 10.1996 7.73088C10.1996 8.10348 10.0521 8.46093 9.78932 8.7251L8.7951 9.71932L11.7792 12.7034Z" stroke="white" stroke-width="1.5" stroke-linejoin="round"/>
</svg>
