<svg width="1405" height="366" viewBox="0 0 1405 366" fill="none" xmlns="http://www.w3.org/2000/svg">
<path opacity="0.5" d="M130.885 0.359607H182.888L313.279 359H267.681L241.039 285.735H72.7342L46.3485 359H0.493737L130.885 0.359607ZM88.6168 242.698H225.156L156.758 55.4365L88.6168 242.698ZM455.867 365.66C427.176 365.66 402.242 358.658 381.065 344.654C360.059 330.65 343.835 311.864 332.392 288.297C321.121 264.558 315.485 238.258 315.485 209.396V0.359607H358.522V209.396C358.522 229.889 362.279 248.761 369.793 266.01C377.478 283.259 388.494 297.006 402.839 307.253C417.356 317.5 435.032 322.624 455.867 322.624C477.044 322.624 494.805 317.5 509.151 307.253C523.496 296.836 534.341 283.088 541.684 266.01C549.199 248.761 552.956 229.889 552.956 209.396V0.359607H595.993V209.396C595.993 231.085 592.748 251.408 586.258 270.365C579.769 289.151 570.376 305.716 558.079 320.062C545.954 334.408 531.267 345.594 514.018 353.62C496.769 361.647 477.385 365.66 455.867 365.66ZM613.224 359V0.359607H739.261C758.388 0.359607 775.637 5.05609 791.008 14.4491C806.549 23.842 818.845 36.5652 827.896 52.6186C837.118 68.5013 841.73 86.2625 841.73 105.902C841.73 123.151 838.314 138.863 831.483 153.038C824.651 167.213 815.258 179.082 803.304 188.646C791.52 198.039 778.114 204.528 763.085 208.115L850.183 359H800.486L714.925 211.701H656.261V359H613.224ZM656.261 168.664H734.906C746.519 168.664 757.193 165.847 766.927 160.211C776.662 154.404 784.347 146.634 789.983 136.899C795.789 126.994 798.693 115.893 798.693 103.597C798.693 91.1298 795.789 80.029 789.983 70.2945C784.347 60.3892 776.662 52.6186 766.927 46.9829C757.193 41.1763 746.519 38.273 734.906 38.273H656.261V168.664ZM868.435 359V0.359607H1088.49V43.3964H911.472V145.353H1056.47V188.39H911.472V315.963H1088.49V359H868.435ZM1088.26 359L1219.68 178.655L1089.8 0.359607H1142.83L1246.06 142.279L1349.56 0.359607H1402.59L1272.96 178.655L1404.12 359H1350.84L1246.06 215.544L1141.8 359H1088.26Z" fill="#006A54"/>
</svg>
