<svg width="104" height="43" viewBox="0 0 104 43" fill="none" xmlns="http://www.w3.org/2000/svg">
<path d="M11.2818 28.9288C6.02935 28.9283 1.53811 25.1502 0.638927 19.9753C-0.260684 14.8008 2.69202 9.72863 7.63647 7.95582C12.5805 6.18302 18.0834 8.22332 20.677 12.7908L19.1257 13.6912C17.7422 10.1375 14.7537 7.67342 11.2818 7.67342C6.49236 7.67342 2.61066 12.3542 2.61066 18.1228C2.61066 23.8987 6.49321 28.5727 11.2818 28.5727C15.0088 28.5727 18.192 25.732 19.4145 21.743L20.838 23.1665C18.9668 26.71 15.2887 28.9275 11.2818 28.9283V28.9288Z" fill="#EDA001"/>
<path d="M32.2583 20.0803V28.4349H30.6947V26.3319C29.9007 27.7602 28.432 28.7905 26.8534 28.7905C22.4555 28.7432 21.1525 26.0236 21.7573 23.4789C22.8312 18.9792 28.1304 19.8647 29.3389 17.0454C30.1784 15.0711 28.15 13.1569 26.5919 13.1569C24.9332 13.1569 24.0668 14.7883 24.0668 16.521L22.3345 14.9765C23.3155 13.5913 24.9149 12.7769 26.6123 12.7995C30.1111 12.7995 31.9981 15.5128 30.7492 18.0783C29.2852 21.0868 24.7049 20.8057 23.5165 23.9752C22.7311 26.0572 24.1678 28.3599 26.8538 28.4353C28.6343 28.4353 30.0144 27.2294 30.6955 25.6398V20.0803H32.2583Z" fill="#EDA001"/>
<path d="M38.6045 28.7913C36.6434 28.7913 34.6892 28.1737 33.3525 26.4878L34.8574 24.997C35.3336 26.6019 36.724 28.4352 38.5977 28.4352C41.3715 28.4352 42.8687 26.0916 42.0701 23.9759C40.8808 20.8065 36.301 21.0884 34.837 18.0795C33.5877 15.5144 35.4751 12.8011 38.9738 12.8011C40.6708 12.7786 42.2707 13.5921 43.2517 14.9769L41.5189 16.5218C41.5189 14.7895 40.6529 13.1577 39.0007 13.1577C37.4361 13.1577 35.4078 15.0715 36.2473 17.0462C37.4553 19.8664 42.7542 18.98 43.8284 23.4797C44.4396 26.0503 43.1098 28.7905 38.6045 28.7913Z" fill="#EDA001"/>
<path d="M59.9258 24.8273C58.1556 27.8588 54.6146 29.3803 51.1972 28.5783C47.7794 27.7758 45.2854 24.8376 45.049 21.335C44.8126 17.8328 46.8891 14.5858 50.1677 13.3318C53.4467 12.0774 57.1597 13.1094 59.3214 15.8751L58.3264 16.8701C57.2453 14.6475 55.2719 13.1563 53.0212 13.1563C49.6029 13.1563 46.8291 16.5745 46.8291 20.7987C46.8291 25.0165 49.6029 28.4347 53.0212 28.4347C55.6131 28.4347 57.8429 26.46 58.7566 23.6598L59.9258 24.8273Z" fill="#EDA001"/>
<path d="M71.3743 20.0803V28.4349H69.8107V26.3319C69.0167 27.7602 67.548 28.7905 65.969 28.7905C61.571 28.7432 60.2685 26.0236 60.8733 23.4789C61.9471 18.9792 67.2464 19.8647 68.4548 17.0454C69.294 15.0711 67.266 13.1569 65.7079 13.1569C64.0492 13.1569 63.1828 14.7883 63.1828 16.521L61.4501 14.9765C62.4315 13.5913 64.0309 12.7769 65.7279 12.7995C69.2271 12.7995 71.1141 15.5128 69.8647 18.0783C68.4012 21.0868 63.8209 20.8057 62.6325 23.9752C61.847 26.0572 63.2834 28.3599 65.9698 28.4353C67.7499 28.4353 69.1304 27.2294 69.8111 25.6398V20.0803H71.3743Z" fill="#EDA001"/>
<path d="M86.3453 7.53541V28.4347H84.7803V26.2185C83.9548 27.7834 82.3388 28.7708 80.5698 28.7908C75.3919 28.7908 72.8264 24.7949 72.8264 20.7991C72.8332 16.8032 75.3987 12.8006 80.5698 12.8006C82.3409 12.8206 83.9582 13.8109 84.7803 15.3797V8.50914C85.4372 8.48273 86.0318 8.113 86.3453 7.53541ZM84.7803 16.1047C84.1222 14.4324 82.3827 13.1563 80.5698 13.1563C76.6208 13.1563 74.6329 16.9779 74.6329 20.7987C74.6329 24.6135 76.6276 28.4347 80.5698 28.4347C82.3827 28.4347 84.1222 27.1653 84.7803 25.4931V16.1047Z" fill="#EDA001"/>
<path d="M101.41 24.7208L102.404 25.7149C100.246 28.4819 96.5343 29.517 93.2553 28.2655C89.9768 27.0141 87.8985 23.77 88.1324 20.2683C88.3667 16.767 90.8581 13.8279 94.2742 13.0242C97.6899 12.22 101.231 13.7393 103.002 16.7691L101.841 17.9379H90.3567C90.0568 18.8618 89.9048 19.8274 89.9069 20.7986C89.9069 25.0164 92.6803 28.4346 96.0985 28.4346C98.3544 28.4346 100.329 26.9502 101.41 24.7208ZM90.4815 17.5818H101.711C100.725 14.9661 98.5861 13.1562 96.0985 13.1562C93.611 13.1562 91.4646 14.9678 90.4815 17.5818Z" fill="#EDA001"/>
<path d="M40.3473 40.3166C40.4073 40.4733 40.4908 40.6101 40.5977 40.7276C40.7047 40.8448 40.8337 40.9389 40.9849 41.0092C41.1366 41.0795 41.3035 41.1148 41.4859 41.1148C41.6686 41.1148 41.8343 41.0795 41.9829 41.0092C42.1316 40.9389 42.2581 40.8448 42.3625 40.7276C42.4668 40.6101 42.5478 40.4733 42.6053 40.3166C42.6623 40.1603 42.6913 39.9958 42.6913 39.8233V39.0409C42.6913 38.9212 42.7083 38.8415 42.742 38.8023C42.7761 38.7631 42.8293 38.7435 42.9026 38.7435H43.8495C43.9278 38.7435 43.9866 38.7619 44.0258 38.7985C44.0646 38.8347 44.0842 38.9105 44.0842 39.0251V39.894C44.0842 40.2804 44.0164 40.6309 43.881 40.9466C43.7451 41.2622 43.5585 41.5322 43.3213 41.7567C43.084 41.9812 42.8059 42.1546 42.4877 42.2772C42.1695 42.3995 41.8304 42.4608 41.4705 42.4608C41.1051 42.4608 40.7592 42.3995 40.4333 42.2772C40.107 42.1546 39.8217 41.9812 39.5763 41.7567C39.331 41.5322 39.1367 41.2622 38.9932 40.9466C38.8496 40.6309 38.7781 40.2804 38.7781 39.894V33.8758C38.7781 33.5154 38.8458 33.1794 38.9817 32.8663C39.1171 32.5532 39.305 32.2806 39.5452 32.0485C39.785 31.8163 40.0696 31.6349 40.3984 31.5045C40.7268 31.3742 41.0842 31.3086 41.4705 31.3086C41.8875 31.3086 42.2555 31.3806 42.5737 31.5237C42.8919 31.6672 43.1594 31.8606 43.3758 32.103C43.5926 32.3458 43.757 32.6235 43.8691 32.9366C43.9811 33.2496 44.0373 33.5734 44.0373 33.9069V34.5565C44.0373 34.6766 44.0215 34.7601 43.9905 34.8069C43.9589 34.8538 43.8993 34.8776 43.8103 34.8776H42.8715C42.7825 34.8776 42.7237 34.8538 42.6951 34.8069C42.6666 34.7601 42.6521 34.6847 42.6521 34.5799V33.9461C42.6521 33.774 42.6249 33.6096 42.5699 33.4528C42.515 33.2965 42.437 33.1585 42.3352 33.0384C42.2334 32.9182 42.1107 32.8233 41.9672 32.7526C41.8236 32.6823 41.6635 32.6469 41.4859 32.6469C41.3087 32.6469 41.1442 32.681 40.993 32.7487C40.8418 32.8164 40.711 32.9093 40.6016 33.0264C40.4921 33.144 40.4073 33.2807 40.3473 33.4375C40.2872 33.5938 40.2574 33.7582 40.2574 33.9303V39.8233C40.2574 39.9958 40.2872 40.1603 40.3473 40.3166Z" fill="#EDA001"/>
<path d="M46.9451 31.7548C46.9451 31.6714 46.9672 31.6036 47.0115 31.5512C47.0558 31.4993 47.1172 31.4729 47.1955 31.4729H48.1893C48.2676 31.4729 48.3264 31.4993 48.3656 31.5512C48.4048 31.6036 48.4244 31.6714 48.4244 31.7548V42.0151C48.4244 42.1037 48.4061 42.1727 48.3695 42.2226C48.3328 42.272 48.2728 42.2967 48.1893 42.2967H47.1955C47.1065 42.2967 47.043 42.272 47.0038 42.2226C46.9647 42.1727 46.9451 42.1037 46.9451 42.0151V31.7548Z" fill="#EDA001"/>
<path d="M50.8936 31.7233C50.8936 31.6398 50.9157 31.5772 50.96 31.5355C51.0043 31.4937 51.0524 31.4729 51.1048 31.4729H55.7298C55.7877 31.4729 55.8367 31.4912 55.8789 31.5278C55.9206 31.5644 55.9411 31.6271 55.9411 31.7157V32.5765C55.9411 32.6655 55.9206 32.729 55.8789 32.7682C55.8367 32.8074 55.7877 32.827 55.7298 32.827H54.1572V42.0462C54.1572 42.1297 54.1363 42.1923 54.0942 42.2341C54.0528 42.2758 54.0056 42.2967 53.9532 42.2967H52.8972C52.8393 42.2967 52.7886 42.2758 52.7447 42.2341C52.7 42.1923 52.6779 42.1297 52.6779 42.0462V32.827H51.1048C51.0524 32.827 51.0043 32.8074 50.96 32.7682C50.9157 32.729 50.8936 32.6655 50.8936 32.5765V31.7233Z" fill="#EDA001"/>
<path d="M59.866 37.7965L57.8159 31.7936C57.7895 31.6999 57.7933 31.6228 57.8274 31.5627C57.861 31.5031 57.9173 31.4729 57.9956 31.4729H58.9894C59.0418 31.4729 59.0925 31.4873 59.1419 31.5159C59.1917 31.5448 59.2296 31.6113 59.2556 31.7157L60.5079 35.8167L60.6016 36.2469L60.6957 35.8167L61.9319 31.7157C61.9527 31.6271 61.9906 31.5644 62.0456 31.5278C62.1005 31.4916 62.1538 31.4729 62.2062 31.4729H63.208C63.2915 31.4729 63.3473 31.5031 63.3758 31.5627C63.4048 31.6228 63.4035 31.7025 63.372 31.8017L61.3372 37.7812V42.007C61.3372 42.1008 61.3215 42.1727 61.2904 42.2226C61.2589 42.272 61.2043 42.2967 61.126 42.2967H60.0773C59.9938 42.2967 59.9375 42.2707 59.909 42.2183C59.8805 42.1664 59.866 42.0961 59.866 42.007V37.7965Z" fill="#EDA001"/>
<path d="M31.4003 39.1683C31.2351 39.1752 31.152 39.0776 31.0532 39.0184C29.1986 37.9058 27.2103 37.2277 25.0396 37.068C23.0121 36.9193 21.0702 37.3044 19.147 37.8688C16.9499 38.5141 14.8474 39.4205 12.7053 40.2175C10.7872 40.9314 8.84277 41.5596 6.81353 41.8595C4.82476 42.1534 2.83556 42.176 0.881295 41.5886C0.650003 41.5192 0.423396 41.4336 0.195512 41.3522C0.152917 41.3369 0.115433 41.3066 0 41.2393C0.40934 41.2636 0.736046 41.2909 1.06275 41.3011C3.70621 41.3829 6.17673 40.6498 8.60168 39.6999C10.8332 38.8255 12.9788 37.7478 15.215 36.884C17.139 36.1411 19.1065 35.5503 21.1664 35.3548C24.4991 35.0383 27.5327 35.8259 30.1706 37.9386C30.614 38.2939 31.0796 38.6461 31.4003 39.1683Z" fill="#EDA001"/>
<path d="M71.9124 39.1683C72.0776 39.1752 72.1607 39.0776 72.2595 39.0184C74.1141 37.9058 76.1024 37.2277 78.2731 37.068C80.3006 36.9193 82.2425 37.3044 84.1657 37.8688C86.3628 38.5141 88.4653 39.4205 90.6074 40.2175C92.5255 40.9314 94.4699 41.5596 96.4992 41.8595C98.4879 42.1534 100.477 42.176 102.431 41.5886C102.663 41.5192 102.889 41.4336 103.117 41.3522C103.16 41.3369 103.197 41.3066 103.313 41.2393C102.903 41.2636 102.577 41.2909 102.25 41.3011C99.6065 41.3829 97.136 40.6498 94.711 39.6999C92.4795 38.8255 90.3339 37.7478 88.0977 36.884C86.1737 36.1411 84.2062 35.5503 82.1463 35.3548C78.8136 35.0383 75.78 35.8259 73.1421 37.9386C72.6987 38.2939 72.2331 38.6461 71.9124 39.1683Z" fill="#EDA001"/>
<path d="M40.7183 -1.04904e-05V5.13908C40.7183 5.9633 40.8729 6.51575 41.1821 6.79603C41.4909 7.07588 42.0983 7.21687 43.0039 7.21687C43.9095 7.21687 44.5161 7.07588 44.8227 6.79603C45.129 6.51575 45.2828 5.9633 45.2828 5.13908V-1.04904e-05H46.2748V5.4053C46.2748 6.38286 46.0205 7.08355 45.5124 7.50737C45.005 7.93161 44.1685 8.14374 43.0039 8.14374C41.8398 8.14374 41.0032 7.93161 40.4955 7.50737C39.9873 7.08355 39.7339 6.38286 39.7339 5.4053V-1.04904e-05H40.7183Z" fill="#EDA001"/>
<path d="M57.2578 7.93585V-3.43323e-05H63.4967V0.913205H58.2418V3.24145H61.4194V4.15469H58.2418V7.02261H63.82V7.93585H57.2578Z" fill="#EDA001"/>
<path d="M53.5774 4.44914C54.1426 4.34819 54.5979 4.09347 54.943 3.68371C55.288 3.27394 55.4605 2.78197 55.4605 2.20694C55.4605 1.51647 55.2399 0.976366 54.799 0.585769C54.3581 0.195172 53.7499 8.67844e-05 52.9734 8.67844e-05H48.4233V7.93512H49.4081V6.43407H49.4022V2.44334H49.4081V0.912899H52.9593C53.4236 0.912899 53.7844 1.02918 54.0404 1.26133C54.2968 1.49432 54.425 1.81847 54.425 2.23505C54.425 2.66185 54.2968 2.98557 54.0404 3.20579C53.7844 3.42643 53.4074 3.53633 52.9086 3.53633H49.8954V4.46362H52.4844L54.4685 7.93512H55.561L53.5774 4.44914Z" fill="#EDA001"/>
<path d="M35.0621 8.67844e-05H34.2425L30.354 7.93512H31.4104L32.4599 5.80068H32.4714L32.9255 4.87296H32.9127L34.6527 1.35844L36.4059 4.87296H33.4745L33.0205 5.80068H36.8447L37.9227 7.93512H38.994L35.0621 8.67844e-05Z" fill="#EDA001"/>
<path d="M69.0868 3.49329L71.9492 6.53267e-05H70.7561L68.4973 2.76576L69.0868 3.49329Z" fill="#EDA001"/>
<path d="M68.7514 3.9032L68.7535 3.90107L68.1644 3.17397L68.1619 3.17695L65.5602 0.000209808H64.3526L67.5443 3.94622L64.3096 7.9361H65.4673L68.1333 4.6648L70.7717 7.9361H72.0363L68.7514 3.9032Z" fill="#EDA001"/>
</svg>
