<svg width="21" height="20" viewBox="0 0 21 20" fill="none" xmlns="http://www.w3.org/2000/svg">
<path d="M9.91659 13.0833C9.99992 13.1667 10.0833 13.25 10.1666 13.25C10.2499 13.3333 10.4166 13.3333 10.4999 13.3333C10.5833 13.3333 10.7499 13.3333 10.8333 13.25C10.9166 13.1667 10.9999 13.1667 11.0833 13.0833L14.4166 9.74999C14.7499 9.41666 14.7499 8.91666 14.4166 8.58333C14.0833 8.24999 13.5833 8.24999 13.2499 8.58333L11.3333 10.5V4.16666C11.3333 3.66666 10.9999 3.33333 10.4999 3.33333C9.99992 3.33333 9.66658 3.66666 9.66658 4.16666V10.5L7.74992 8.58333C7.41658 8.24999 6.91659 8.24999 6.58325 8.58333C6.24992 8.91666 6.24992 9.41666 6.58325 9.74999L9.91659 13.0833Z" fill="black"/>
<path d="M16.3333 10.8333C15.8333 10.8333 15.4999 11.1667 15.4999 11.6667V13.3333C15.4999 14.25 14.7499 15 13.8333 15H7.16659C6.24992 15 5.49992 14.25 5.49992 13.3333V11.6667C5.49992 11.1667 5.16659 10.8333 4.66659 10.8333C4.16659 10.8333 3.83325 11.1667 3.83325 11.6667V13.3333C3.83325 15.1667 5.33325 16.6667 7.16659 16.6667H13.8333C15.6666 16.6667 17.1666 15.1667 17.1666 13.3333V11.6667C17.1666 11.1667 16.8333 10.8333 16.3333 10.8333Z" fill="black"/>
</svg>
